<svg width="300" height="317" viewBox="0 0 300 317" fill="none" xmlns="http://www.w3.org/2000/svg">
<path d="M300 108.333V158.333C300 199.755 232.843 233.333 150 233.333C67.1573 233.333 0 199.755 0 158.333V108.333C0 149.755 67.1573 183.333 150 183.333C232.843 183.333 300 149.755 300 108.333ZM0 191.667C0 233.088 67.1573 266.667 150 266.667C232.843 266.667 300 233.088 300 191.667V241.667C300 283.088 232.843 316.667 150 316.667C67.1573 316.667 0 283.088 0 241.667V191.667ZM150 150C67.1573 150 0 116.421 0 75C0 33.5787 67.1573 0 150 0C232.843 0 300 33.5787 300 75C300 116.421 232.843 150 150 150Z" fill="#8CC84B"/>
</svg>
