<svg width="300" height="68" viewBox="0 0 300 68" fill="none" xmlns="http://www.w3.org/2000/svg">
<path d="M11.22 34.04C13.38 34.44 14.92 35.32 15.84 36.68C16.8 38.04 17.28 40 17.28 42.56V49.34C17.28 51.02 17.52 52.24 18 53C18.48 53.76 19.36 54.14 20.64 54.14H26.22V59.9H19.98C16.38 59.9 13.88 59.12 12.48 57.56C11.12 56 10.44 53.74 10.44 50.78V41.96C10.44 40.28 10.18 39.02 9.66 38.18C9.14 37.3 8.26 36.86 7.02 36.86H3.78V31.1H7.02C8.26 31.1 9.14 30.68 9.66 29.84C10.18 28.96 10.44 27.7 10.44 26.06V17.18C10.44 14.22 11.12 11.96 12.48 10.4C13.88 8.84 16.38 8.06 19.98 8.06H26.22V13.82H20.64C19.36 13.82 18.48 14.2 18 14.96C17.52 15.68 17.28 16.9 17.28 18.62V25.4C17.28 27.96 16.8 29.92 15.84 31.28C14.92 32.64 13.38 33.56 11.22 34.04ZM234 48.14C234 50.42 233.72 52.32 233.16 53.84C232.6 55.4 231.82 56.64 230.82 57.56C229.86 58.52 228.7 59.2 227.34 59.6C226.02 60 224.58 60.2 223.02 60.2C221.1 60.2 219.32 59.96 217.68 59.48C216.04 59 214.46 58.38 212.94 57.62L215.22 51.38C216.22 51.94 217.42 52.46 218.82 52.94C220.26 53.46 221.56 53.72 222.72 53.72C223.96 53.72 224.92 53.34 225.6 52.58C226.28 51.86 226.62 50.5 226.62 48.5V27.92H215.22V21.8H234V48.14ZM233.1 13.7C233.1 15.14 232.64 16.28 231.72 17.12C230.8 17.96 229.7 18.38 228.42 18.38C227.14 18.38 226.04 17.96 225.12 17.12C224.24 16.28 223.8 15.14 223.8 13.7C223.8 12.22 224.24 11.06 225.12 10.22C226.04 9.38 227.14 8.96 228.42 8.96C229.7 8.96 230.8 9.38 231.72 10.22C232.64 11.06 233.1 12.22 233.1 13.7ZM253.68 44.42C255.48 44.42 256.86 44.3 257.82 44.06C258.78 43.78 259.26 43.24 259.26 42.44C259.26 41.92 259.1 41.48 258.78 41.12C258.5 40.76 258.08 40.46 257.52 40.22C257 39.94 256.38 39.68 255.66 39.44C254.98 39.2 254.26 38.96 253.5 38.72C252.42 38.4 251.32 38.04 250.2 37.64C249.08 37.2 248.06 36.66 247.14 36.02C246.22 35.38 245.46 34.58 244.86 33.62C244.26 32.62 243.96 31.38 243.96 29.9C243.96 28.7 244.18 27.58 244.62 26.54C245.1 25.46 245.82 24.52 246.78 23.72C247.78 22.88 249.04 22.24 250.56 21.8C252.08 21.32 253.9 21.08 256.02 21.08C257.86 21.08 259.56 21.22 261.12 21.5C262.72 21.78 264.1 22.18 265.26 22.7L264.12 28.94C263.44 28.74 262.38 28.42 260.94 27.98C259.5 27.5 257.88 27.26 256.08 27.26C254.2 27.26 252.92 27.5 252.24 27.98C251.6 28.42 251.28 28.9 251.28 29.42C251.28 29.86 251.42 30.26 251.7 30.62C252.02 30.94 252.42 31.24 252.9 31.52C253.42 31.8 254 32.08 254.64 32.36C255.32 32.6 256.04 32.84 256.8 33.08C257.88 33.44 259 33.84 260.16 34.28C261.32 34.72 262.36 35.28 263.28 35.96C264.24 36.6 265.02 37.44 265.62 38.48C266.22 39.48 266.52 40.72 266.52 42.2C266.52 43.36 266.3 44.46 265.86 45.5C265.42 46.54 264.68 47.44 263.64 48.2C262.64 48.96 261.32 49.56 259.68 50C258.04 50.44 256.02 50.66 253.62 50.66C251.18 50.66 249.1 50.38 247.38 49.82C245.66 49.26 244.28 48.76 243.24 48.32L244.38 42.14C245.78 42.7 247.26 43.22 248.82 43.7C250.42 44.18 252.04 44.42 253.68 44.42ZM288.78 33.92C286.62 33.52 285.06 32.64 284.1 31.28C283.14 29.92 282.66 27.96 282.66 25.4V18.62C282.66 16.94 282.42 15.72 281.94 14.96C281.46 14.2 280.58 13.82 279.3 13.82H273.78V8.06H279.96C281.76 8.06 283.26 8.26 284.46 8.66C285.7 9.06 286.68 9.64 287.4 10.4C288.16 11.16 288.7 12.12 289.02 13.28C289.34 14.4 289.5 15.7 289.5 17.18V26C289.5 27.68 289.76 28.96 290.28 29.84C290.8 30.68 291.68 31.1 292.92 31.1H296.22V36.86H292.92C291.68 36.86 290.8 37.3 290.28 38.18C289.76 39.02 289.5 40.26 289.5 41.9V50.78C289.5 52.26 289.34 53.56 289.02 54.68C288.7 55.84 288.16 56.8 287.4 57.56C286.68 58.32 285.7 58.9 284.46 59.3C283.26 59.7 281.76 59.9 279.96 59.9H273.78V54.14H279.3C280.58 54.14 281.46 53.76 281.94 53C282.42 52.28 282.66 51.06 282.66 49.34V42.56C282.66 40 283.14 38.04 284.1 36.68C285.06 35.32 286.62 34.4 288.78 33.92Z" fill="white"/>
<path d="M45.06 44.72C45.86 44.72 46.64 44.72 47.4 44.72C48.16 44.68 48.82 44.62 49.38 44.54V38.06C48.9 37.98 48.32 37.92 47.64 37.88C46.96 37.8 46.34 37.76 45.78 37.76C45.02 37.76 44.28 37.82 43.56 37.94C42.84 38.02 42.2 38.18 41.64 38.42C41.12 38.66 40.7 39 40.38 39.44C40.06 39.88 39.9 40.46 39.9 41.18C39.9 42.46 40.38 43.38 41.34 43.94C42.3 44.46 43.54 44.72 45.06 44.72ZM44.4 21.08C46.72 21.08 48.64 21.36 50.16 21.92C51.72 22.44 52.96 23.2 53.88 24.2C54.8 25.16 55.46 26.36 55.86 27.8C56.26 29.2 56.46 30.78 56.46 32.54V49.34C55.38 49.58 53.78 49.86 51.66 50.18C49.54 50.5 47.16 50.66 44.52 50.66C42.72 50.66 41.08 50.5 39.6 50.18C38.16 49.86 36.92 49.34 35.88 48.62C34.84 47.86 34.04 46.9 33.48 45.74C32.92 44.54 32.64 43.08 32.64 41.36C32.64 39.72 32.96 38.34 33.6 37.22C34.24 36.1 35.1 35.2 36.18 34.52C37.26 33.84 38.5 33.36 39.9 33.08C41.3 32.76 42.76 32.6 44.28 32.6C46.2 32.6 47.9 32.76 49.38 33.08V32.18C49.38 30.78 48.94 29.62 48.06 28.7C47.18 27.74 45.66 27.26 43.5 27.26C42.1 27.26 40.74 27.36 39.42 27.56C38.14 27.76 37.1 28 36.3 28.28L35.28 22.34C36.2 22.02 37.5 21.74 39.18 21.5C40.86 21.22 42.6 21.08 44.4 21.08ZM80.7 35.72C80.7 33.08 80.26 31.06 79.38 29.66C78.54 28.26 77.24 27.56 75.48 27.56C74.68 27.56 73.88 27.68 73.08 27.92C72.32 28.12 71.66 28.38 71.1 28.7V44C71.66 44.12 72.24 44.2 72.84 44.24C73.48 44.28 74.02 44.3 74.46 44.3C76.38 44.3 77.9 43.66 79.02 42.38C80.14 41.06 80.7 38.84 80.7 35.72ZM88.2 35.9C88.2 38.14 87.9 40.18 87.3 42.02C86.7 43.82 85.82 45.36 84.66 46.64C83.5 47.92 82.08 48.92 80.4 49.64C78.72 50.32 76.8 50.66 74.64 50.66C72.72 50.66 70.76 50.52 68.76 50.24C66.76 49.96 65.08 49.6 63.72 49.16V9.62L71.1 8.36V22.46C72.14 21.98 73.14 21.66 74.1 21.5C75.06 21.3 76.02 21.2 76.98 21.2C78.82 21.2 80.44 21.56 81.84 22.28C83.24 22.96 84.4 23.96 85.32 25.28C86.28 26.56 87 28.1 87.48 29.9C87.96 31.7 88.2 33.7 88.2 35.9ZM118.32 35.84C118.32 38.08 118 40.12 117.36 41.96C116.72 43.76 115.82 45.32 114.66 46.64C113.5 47.96 112.1 48.98 110.46 49.7C108.86 50.42 107.06 50.78 105.06 50.78C103.06 50.78 101.24 50.42 99.6 49.7C98 48.98 96.6 47.96 95.4 46.64C94.24 45.32 93.34 43.76 92.7 41.96C92.06 40.12 91.74 38.08 91.74 35.84C91.74 33.64 92.06 31.64 92.7 29.84C93.38 28 94.3 26.44 95.46 25.16C96.66 23.84 98.08 22.84 99.72 22.16C101.36 21.44 103.14 21.08 105.06 21.08C107.02 21.08 108.8 21.44 110.4 22.16C112.04 22.84 113.44 23.84 114.6 25.16C115.8 26.44 116.72 28 117.36 29.84C118 31.64 118.32 33.64 118.32 35.84ZM99.24 35.9C99.24 38.42 99.68 40.46 100.56 42.02C101.48 43.58 102.94 44.36 104.94 44.36C106.86 44.36 108.3 43.58 109.26 42.02C110.26 40.46 110.76 38.42 110.76 35.9C110.76 33.38 110.3 31.36 109.38 29.84C108.5 28.28 107.06 27.5 105.06 27.5C103.14 27.5 101.68 28.28 100.68 29.84C99.72 31.36 99.24 33.38 99.24 35.9ZM146.28 49.04C144.92 49.4 143.26 49.76 141.3 50.12C139.38 50.48 137.28 50.66 135 50.66C132.68 50.66 130.78 50.34 129.3 49.7C127.82 49.06 126.64 48.16 125.76 47C124.92 45.8 124.34 44.4 124.02 42.8C123.7 41.2 123.54 39.44 123.54 37.52V21.8H130.92V36.56C130.92 39.16 131.22 41.1 131.82 42.38C132.46 43.62 133.68 44.24 135.48 44.24C136.6 44.24 137.72 44.14 138.84 43.94V21.8H146.28V49.04ZM158.58 27.92H152.16V21.8H158.58V14.72L165.96 13.52V21.8H177.78V27.92H165.96V39.32C165.96 40.36 166.06 41.2 166.26 41.84C166.46 42.48 166.74 42.98 167.1 43.34C167.46 43.7 167.9 43.94 168.42 44.06C168.94 44.18 169.52 44.24 170.16 44.24C170.84 44.24 171.46 44.22 172.02 44.18C172.62 44.14 173.18 44.08 173.7 44C174.26 43.88 174.82 43.72 175.38 43.52C175.98 43.32 176.62 43.06 177.3 42.74L178.32 49.1C176.96 49.66 175.48 50.06 173.88 50.3C172.32 50.54 170.8 50.66 169.32 50.66C167.6 50.66 166.08 50.52 164.76 50.24C163.44 49.96 162.32 49.42 161.4 48.62C160.48 47.82 159.78 46.7 159.3 45.26C158.82 43.78 158.58 41.86 158.58 39.5V27.92ZM200.4 45.26C200.4 47.02 199.86 48.36 198.78 49.28C197.7 50.2 196.46 50.66 195.06 50.66C194.34 50.66 193.66 50.54 193.02 50.3C192.38 50.06 191.8 49.72 191.28 49.28C190.8 48.8 190.4 48.24 190.08 47.6C189.8 46.92 189.66 46.14 189.66 45.26C189.66 44.42 189.8 43.68 190.08 43.04C190.4 42.36 190.8 41.8 191.28 41.36C191.8 40.92 192.38 40.58 193.02 40.34C193.66 40.1 194.34 39.98 195.06 39.98C196.46 39.98 197.7 40.44 198.78 41.36C199.86 42.28 200.4 43.58 200.4 45.26Z" fill="#F0DB4F"/>
</svg>
