<svg width="300" height="68" viewBox="0 0 300 68" fill="none" xmlns="http://www.w3.org/2000/svg">
<path d="M4.74 32.06H7.14C7.82 32.06 8.42 31.92 8.94 31.64C9.46 31.32 9.88 30.92 10.2 30.44C10.56 29.92 10.82 29.36 10.98 28.76C11.18 28.12 11.28 27.48 11.28 26.84V17.18C11.28 15.7 11.42 14.4 11.7 13.28C12.02 12.16 12.54 11.22 13.26 10.46C13.98 9.66 14.94 9.06 16.14 8.66C17.38 8.26 18.92 8.06 20.76 8.06H25.62V11.96H20.52C18.84 11.96 17.64 12.34 16.92 13.1C16.24 13.86 15.9 15.24 15.9 17.24V25.52C15.9 28.2 15.5 30.18 14.7 31.46C13.9 32.7 12.98 33.54 11.94 33.98C12.98 34.46 13.9 35.36 14.7 36.68C15.5 38 15.9 39.92 15.9 42.44V50.72C15.9 52.72 16.26 54.1 16.98 54.86C17.7 55.62 18.9 56 20.58 56H25.62V59.9H20.76C18.92 59.9 17.38 59.7 16.14 59.3C14.94 58.9 13.98 58.3 13.26 57.5C12.54 56.74 12.02 55.8 11.7 54.68C11.42 53.56 11.28 52.26 11.28 50.78V41.12C11.28 40.52 11.18 39.92 10.98 39.32C10.82 38.68 10.56 38.12 10.2 37.64C9.88 37.12 9.46 36.7 8.94 36.38C8.46 36.06 7.88 35.9 7.2 35.9H4.74V32.06ZM234 48.14C234 50.42 233.72 52.32 233.16 53.84C232.6 55.4 231.82 56.64 230.82 57.56C229.86 58.52 228.7 59.2 227.34 59.6C226.02 60 224.58 60.2 223.02 60.2C221.1 60.2 219.32 59.96 217.68 59.48C216.04 59 214.46 58.38 212.94 57.62L215.22 51.38C216.22 51.94 217.42 52.46 218.82 52.94C220.26 53.46 221.56 53.72 222.72 53.72C223.96 53.72 224.92 53.34 225.6 52.58C226.28 51.86 226.62 50.5 226.62 48.5V27.92H215.22V21.8H234V48.14ZM233.1 13.7C233.1 15.14 232.64 16.28 231.72 17.12C230.8 17.96 229.7 18.38 228.42 18.38C227.14 18.38 226.04 17.96 225.12 17.12C224.24 16.28 223.8 15.14 223.8 13.7C223.8 12.22 224.24 11.06 225.12 10.22C226.04 9.38 227.14 8.96 228.42 8.96C229.7 8.96 230.8 9.38 231.72 10.22C232.64 11.06 233.1 12.22 233.1 13.7ZM253.68 44.42C255.48 44.42 256.86 44.3 257.82 44.06C258.78 43.78 259.26 43.24 259.26 42.44C259.26 41.92 259.1 41.48 258.78 41.12C258.5 40.76 258.08 40.46 257.52 40.22C257 39.94 256.38 39.68 255.66 39.44C254.98 39.2 254.26 38.96 253.5 38.72C252.42 38.4 251.32 38.04 250.2 37.64C249.08 37.2 248.06 36.66 247.14 36.02C246.22 35.38 245.46 34.58 244.86 33.62C244.26 32.62 243.96 31.38 243.96 29.9C243.96 28.7 244.18 27.58 244.62 26.54C245.1 25.46 245.82 24.52 246.78 23.72C247.78 22.88 249.04 22.24 250.56 21.8C252.08 21.32 253.9 21.08 256.02 21.08C257.86 21.08 259.56 21.22 261.12 21.5C262.72 21.78 264.1 22.18 265.26 22.7L264.12 28.94C263.44 28.74 262.38 28.42 260.94 27.98C259.5 27.5 257.88 27.26 256.08 27.26C254.2 27.26 252.92 27.5 252.24 27.98C251.6 28.42 251.28 28.9 251.28 29.42C251.28 29.86 251.42 30.26 251.7 30.62C252.02 30.94 252.42 31.24 252.9 31.52C253.42 31.8 254 32.08 254.64 32.36C255.32 32.6 256.04 32.84 256.8 33.08C257.88 33.44 259 33.84 260.16 34.28C261.32 34.72 262.36 35.28 263.28 35.96C264.24 36.6 265.02 37.44 265.62 38.48C266.22 39.48 266.52 40.72 266.52 42.2C266.52 43.36 266.3 44.46 265.86 45.5C265.42 46.54 264.68 47.44 263.64 48.2C262.64 48.96 261.32 49.56 259.68 50C258.04 50.44 256.02 50.66 253.62 50.66C251.18 50.66 249.1 50.38 247.38 49.82C245.66 49.26 244.28 48.76 243.24 48.32L244.38 42.14C245.78 42.7 247.26 43.22 248.82 43.7C250.42 44.18 252.04 44.42 253.68 44.42ZM295.26 35.9H292.86C292.18 35.9 291.58 36.06 291.06 36.38C290.58 36.66 290.16 37.06 289.8 37.58C289.48 38.06 289.22 38.62 289.02 39.26C288.86 39.86 288.78 40.48 288.78 41.12V50.78C288.78 52.26 288.62 53.56 288.3 54.68C288.02 55.8 287.5 56.74 286.74 57.5C286.02 58.3 285.04 58.9 283.8 59.3C282.6 59.7 281.08 59.9 279.24 59.9H274.38V56H279.48C281.16 56 282.34 55.62 283.02 54.86C283.74 54.1 284.1 52.72 284.1 50.72V42.44C284.1 39.76 284.5 37.8 285.3 36.56C286.1 35.28 287.02 34.42 288.06 33.98C287.02 33.5 286.1 32.6 285.3 31.28C284.5 29.96 284.1 28.04 284.1 25.52V17.24C284.1 15.24 283.74 13.86 283.02 13.1C282.3 12.34 281.1 11.96 279.42 11.96H274.38V8.06H279.24C281.08 8.06 282.6 8.26 283.8 8.66C285.04 9.06 286.02 9.66 286.74 10.46C287.5 11.22 288.02 12.16 288.3 13.28C288.62 14.4 288.78 15.7 288.78 17.18V26.84C288.78 27.44 288.86 28.06 289.02 28.7C289.18 29.3 289.42 29.86 289.74 30.38C290.1 30.86 290.52 31.26 291 31.58C291.52 31.9 292.12 32.06 292.8 32.06H295.26V35.9Z" fill="white"/>
<path d="M45.3 46.46C46.54 46.46 47.64 46.42 48.6 46.34C49.6 46.26 50.42 46.16 51.06 46.04V37.76C50.42 37.56 49.64 37.4 48.72 37.28C47.84 37.16 46.9 37.1 45.9 37.1C44.98 37.1 44.08 37.18 43.2 37.34C42.32 37.46 41.54 37.7 40.86 38.06C40.18 38.42 39.62 38.9 39.18 39.5C38.74 40.06 38.52 40.78 38.52 41.66C38.52 43.46 39.12 44.72 40.32 45.44C41.56 46.12 43.22 46.46 45.3 46.46ZM44.82 21.5C46.9 21.5 48.64 21.76 50.04 22.28C51.48 22.8 52.64 23.52 53.52 24.44C54.4 25.36 55.02 26.48 55.38 27.8C55.74 29.12 55.92 30.56 55.92 32.12V49.52C54.76 49.72 53.22 49.96 51.3 50.24C49.42 50.52 47.48 50.66 45.48 50.66C43.96 50.66 42.48 50.52 41.04 50.24C39.6 50 38.32 49.56 37.2 48.92C36.08 48.24 35.18 47.32 34.5 46.16C33.82 45 33.48 43.52 33.48 41.72C33.48 40.12 33.82 38.78 34.5 37.7C35.22 36.58 36.12 35.68 37.2 35C38.32 34.32 39.58 33.84 40.98 33.56C42.42 33.24 43.86 33.08 45.3 33.08C47.26 33.08 49.18 33.3 51.06 33.74V32.36C51.06 31.52 50.96 30.72 50.76 29.96C50.6 29.16 50.26 28.44 49.74 27.8C49.26 27.16 48.58 26.66 47.7 26.3C46.86 25.9 45.76 25.7 44.4 25.7C42.68 25.7 41.18 25.82 39.9 26.06C38.62 26.3 37.64 26.54 36.96 26.78L36.36 22.7C37.04 22.38 38.16 22.1 39.72 21.86C41.32 21.62 43.02 21.5 44.82 21.5ZM69.24 23.18C69.84 22.82 70.7 22.46 71.82 22.1C72.98 21.7 74.26 21.5 75.66 21.5C77.54 21.5 79.22 21.86 80.7 22.58C82.18 23.3 83.42 24.3 84.42 25.58C85.46 26.86 86.24 28.4 86.76 30.2C87.32 31.96 87.6 33.92 87.6 36.08C87.6 38.32 87.28 40.34 86.64 42.14C86 43.94 85.1 45.48 83.94 46.76C82.78 48 81.38 48.96 79.74 49.64C78.1 50.32 76.28 50.66 74.28 50.66C72.08 50.66 70.12 50.5 68.4 50.18C66.68 49.86 65.3 49.54 64.26 49.22V9.26L69.24 8.42V23.18ZM69.24 45.68C70 45.88 70.76 46.04 71.52 46.16C72.28 46.24 73 46.28 73.68 46.28C76.44 46.28 78.6 45.44 80.16 43.76C81.72 42.04 82.5 39.48 82.5 36.08C82.5 34.64 82.36 33.3 82.08 32.06C81.8 30.78 81.36 29.7 80.76 28.82C80.16 27.9 79.38 27.18 78.42 26.66C77.5 26.14 76.38 25.88 75.06 25.88C73.9 25.88 72.78 26.12 71.7 26.6C70.62 27.04 69.8 27.52 69.24 28.04V45.68ZM117.6 36.08C117.6 38.28 117.28 40.28 116.64 42.08C116.04 43.84 115.18 45.36 114.06 46.64C112.94 47.92 111.6 48.92 110.04 49.64C108.48 50.32 106.78 50.66 104.94 50.66C103.14 50.66 101.46 50.32 99.9 49.64C98.38 48.92 97.06 47.92 95.94 46.64C94.82 45.36 93.94 43.84 93.3 42.08C92.7 40.28 92.4 38.28 92.4 36.08C92.4 33.88 92.7 31.88 93.3 30.08C93.94 28.28 94.82 26.76 95.94 25.52C97.06 24.24 98.38 23.26 99.9 22.58C101.46 21.86 103.14 21.5 104.94 21.5C106.78 21.5 108.48 21.86 110.04 22.58C111.6 23.26 112.94 24.24 114.06 25.52C115.18 26.76 116.04 28.28 116.64 30.08C117.28 31.88 117.6 33.88 117.6 36.08ZM112.5 36.08C112.5 32.92 111.82 30.44 110.46 28.64C109.1 26.8 107.26 25.88 104.94 25.88C102.66 25.88 100.84 26.8 99.48 28.64C98.16 30.44 97.5 32.92 97.5 36.08C97.5 39.2 98.16 41.68 99.48 43.52C100.84 45.32 102.66 46.22 104.94 46.22C107.26 46.22 109.1 45.32 110.46 43.52C111.82 41.68 112.5 39.2 112.5 36.08ZM145.74 49.22C144.66 49.5 143.22 49.8 141.42 50.12C139.66 50.44 137.58 50.6 135.18 50.6C133.06 50.6 131.3 50.3 129.9 49.7C128.5 49.06 127.36 48.18 126.48 47.06C125.6 45.9 124.98 44.54 124.62 42.98C124.26 41.42 124.08 39.7 124.08 37.82V22.16H129V36.74C129 40.18 129.5 42.62 130.5 44.06C131.54 45.5 133.26 46.22 135.66 46.22C136.18 46.22 136.7 46.2 137.22 46.16C137.78 46.12 138.3 46.08 138.78 46.04C139.26 45.96 139.68 45.9 140.04 45.86C140.4 45.78 140.64 45.72 140.76 45.68V22.16H145.74V49.22ZM164.58 22.16H176.34V26.3H164.58V39.26C164.58 40.66 164.68 41.8 164.88 42.68C165.08 43.56 165.4 44.28 165.84 44.84C166.32 45.36 166.92 45.72 167.64 45.92C168.36 46.12 169.24 46.22 170.28 46.22C171.72 46.22 172.88 46.1 173.76 45.86C174.64 45.62 175.48 45.3 176.28 44.9L177 49.1C176.44 49.34 175.54 49.66 174.3 50.06C173.1 50.46 171.6 50.66 169.8 50.66C167.72 50.66 166.02 50.42 164.7 49.94C163.38 49.46 162.34 48.74 161.58 47.78C160.86 46.82 160.36 45.64 160.08 44.24C159.8 42.8 159.66 41.14 159.66 39.26V26.3H153.78V22.16H159.66V14.36L164.58 13.52V22.16ZM200.4 45.26C200.4 47.02 199.86 48.36 198.78 49.28C197.7 50.2 196.46 50.66 195.06 50.66C194.34 50.66 193.66 50.54 193.02 50.3C192.38 50.06 191.8 49.72 191.28 49.28C190.8 48.8 190.4 48.24 190.08 47.6C189.8 46.92 189.66 46.14 189.66 45.26C189.66 44.42 189.8 43.68 190.08 43.04C190.4 42.36 190.8 41.8 191.28 41.36C191.8 40.92 192.38 40.58 193.02 40.34C193.66 40.1 194.34 39.98 195.06 39.98C196.46 39.98 197.7 40.44 198.78 41.36C199.86 42.28 200.4 43.58 200.4 45.26Z" fill="#F0DB4F"/>
</svg>
