<svg width="298" height="80" viewBox="0 0 298 80" fill="none" xmlns="http://www.w3.org/2000/svg">
<path d="M20.7 45.32C18.24 45.4 16.14 45.6 14.4 45.92C12.68 46.22 11.27 46.62 10.17 47.12C9.09 47.62 8.3 48.21 7.8 48.89C7.32 49.57 7.08 50.33 7.08 51.17C7.08 51.97 7.21 52.66 7.47 53.24C7.73 53.82 8.08 54.3 8.52 54.68C8.98 55.04 9.51 55.31 10.11 55.49C10.73 55.65 11.39 55.73 12.09 55.73C13.03 55.73 13.89 55.64 14.67 55.46C15.45 55.26 16.18 54.98 16.86 54.62C17.56 54.26 18.22 53.83 18.84 53.33C19.48 52.83 20.1 52.26 20.7 51.62V45.32ZM3.45 32.9C5.13 31.28 6.94 30.07 8.88 29.27C10.82 28.47 12.97 28.07 15.33 28.07C17.03 28.07 18.54 28.35 19.86 28.91C21.18 29.47 22.29 30.25 23.19 31.25C24.09 32.25 24.77 33.46 25.23 34.88C25.69 36.3 25.92 37.86 25.92 39.56V59H23.55C23.03 59 22.63 58.92 22.35 58.76C22.07 58.58 21.85 58.24 21.69 57.74L21.09 54.86C20.29 55.6 19.51 56.26 18.75 56.84C17.99 57.4 17.19 57.88 16.35 58.28C15.51 58.66 14.61 58.95 13.65 59.15C12.71 59.37 11.66 59.48 10.5 59.48C9.32 59.48 8.21 59.32 7.17 59C6.13 58.66 5.22 58.16 4.44 57.5C3.68 56.84 3.07 56.01 2.61 55.01C2.17 53.99 1.95 52.79 1.95 51.41C1.95 50.21 2.28 49.06 2.94 47.96C3.6 46.84 4.67 45.85 6.15 44.99C7.63 44.13 9.56 43.43 11.94 42.89C14.32 42.33 17.24 42.01 20.7 41.93V39.56C20.7 37.2 20.19 35.42 19.17 34.22C18.15 33 16.66 32.39 14.7 32.39C13.38 32.39 12.27 32.56 11.37 32.9C10.49 33.22 9.72 33.59 9.06 34.01C8.42 34.41 7.86 34.78 7.38 35.12C6.92 35.44 6.46 35.6 6 35.6C5.64 35.6 5.33 35.51 5.07 35.33C4.81 35.13 4.59 34.89 4.41 34.61L3.45 32.9ZM39.4242 51.68C40.4042 53 41.4742 53.93 42.6342 54.47C43.8142 55.01 45.1042 55.28 46.5042 55.28C49.3642 55.28 51.5542 54.27 53.0742 52.25C54.5942 50.23 55.3542 47.22 55.3542 43.22C55.3542 39.5 54.6742 36.77 53.3142 35.03C51.9742 33.27 50.0542 32.39 47.5542 32.39C45.8142 32.39 44.2942 32.79 42.9942 33.59C41.7142 34.39 40.5242 35.52 39.4242 36.98V51.68ZM39.4242 32.99C40.7042 31.51 42.1442 30.33 43.7442 29.45C45.3642 28.57 47.2242 28.13 49.3242 28.13C51.1042 28.13 52.7042 28.47 54.1242 29.15C55.5642 29.83 56.7842 30.82 57.7842 32.12C58.7842 33.4 59.5442 34.96 60.0642 36.8C60.6042 38.64 60.8742 40.71 60.8742 43.01C60.8742 45.47 60.5742 47.71 59.9742 49.73C59.3742 51.75 58.5042 53.48 57.3642 54.92C56.2442 56.34 54.8742 57.45 53.2542 58.25C51.6342 59.03 49.8142 59.42 47.7942 59.42C45.7942 59.42 44.1042 59.05 42.7242 58.31C41.3642 57.55 40.1742 56.48 39.1542 55.1L38.8842 57.86C38.7242 58.62 38.2642 59 37.5042 59H34.0542V14.81H39.4242V32.99ZM80.4384 28.13C82.6584 28.13 84.6584 28.5 86.4384 29.24C88.2184 29.98 89.7384 31.03 90.9984 32.39C92.2584 33.75 93.2184 35.4 93.8784 37.34C94.5584 39.26 94.8984 41.41 94.8984 43.79C94.8984 46.19 94.5584 48.35 93.8784 50.27C93.2184 52.19 92.2584 53.83 90.9984 55.19C89.7384 56.55 88.2184 57.6 86.4384 58.34C84.6584 59.06 82.6584 59.42 80.4384 59.42C78.1984 59.42 76.1784 59.06 74.3784 58.34C72.5984 57.6 71.0784 56.55 69.8184 55.19C68.5584 53.83 67.5884 52.19 66.9084 50.27C66.2484 48.35 65.9184 46.19 65.9184 43.79C65.9184 41.41 66.2484 39.26 66.9084 37.34C67.5884 35.4 68.5584 33.75 69.8184 32.39C71.0784 31.03 72.5984 29.98 74.3784 29.24C76.1784 28.5 78.1984 28.13 80.4384 28.13ZM80.4384 55.25C83.4384 55.25 85.6784 54.25 87.1584 52.25C88.6384 50.23 89.3784 47.42 89.3784 43.82C89.3784 40.2 88.6384 37.38 87.1584 35.36C85.6784 33.34 83.4384 32.33 80.4384 32.33C78.9184 32.33 77.5884 32.59 76.4484 33.11C75.3284 33.63 74.3884 34.38 73.6284 35.36C72.8884 36.34 72.3284 37.55 71.9484 38.99C71.5884 40.41 71.4084 42.02 71.4084 43.82C71.4084 47.42 72.1484 50.23 73.6284 52.25C75.1284 54.25 77.3984 55.25 80.4384 55.25ZM126.661 28.61V59H123.481C122.721 59 122.241 58.63 122.041 57.89L121.621 54.62C120.301 56.08 118.821 57.26 117.181 58.16C115.541 59.04 113.661 59.48 111.541 59.48C109.881 59.48 108.411 59.21 107.131 58.67C105.871 58.11 104.811 57.33 103.951 56.33C103.091 55.33 102.441 54.12 102.001 52.7C101.581 51.28 101.371 49.71 101.371 47.99V28.61H106.711V47.99C106.711 50.29 107.231 52.07 108.271 53.33C109.331 54.59 110.941 55.22 113.101 55.22C114.681 55.22 116.151 54.85 117.511 54.11C118.891 53.35 120.161 52.31 121.321 50.99V28.61H126.661ZM144.458 59.48C142.058 59.48 140.208 58.81 138.908 57.47C137.628 56.13 136.988 54.2 136.988 51.68V33.08H133.328C133.008 33.08 132.738 32.99 132.518 32.81C132.298 32.61 132.188 32.31 132.188 31.91V29.78L137.168 29.15L138.398 19.76C138.458 19.46 138.588 19.22 138.788 19.04C139.008 18.84 139.288 18.74 139.628 18.74H142.328V29.21H151.118V33.08H142.328V51.32C142.328 52.6 142.638 53.55 143.258 54.17C143.878 54.79 144.678 55.1 145.658 55.1C146.218 55.1 146.698 55.03 147.098 54.89C147.518 54.73 147.878 54.56 148.178 54.38C148.478 54.2 148.728 54.04 148.928 53.9C149.148 53.74 149.338 53.66 149.498 53.66C149.778 53.66 150.028 53.83 150.248 54.17L151.808 56.72C150.888 57.58 149.778 58.26 148.478 58.76C147.178 59.24 145.838 59.48 144.458 59.48ZM155.732 55.7C155.732 55.18 155.822 54.69 156.002 54.23C156.202 53.77 156.462 53.37 156.782 53.03C157.122 52.69 157.522 52.42 157.982 52.22C158.442 52.02 158.932 51.92 159.452 51.92C159.972 51.92 160.462 52.02 160.922 52.22C161.382 52.42 161.782 52.69 162.122 53.03C162.462 53.37 162.732 53.77 162.932 54.23C163.132 54.69 163.232 55.18 163.232 55.7C163.232 56.24 163.132 56.74 162.932 57.2C162.732 57.64 162.462 58.03 162.122 58.37C161.782 58.71 161.382 58.97 160.922 59.15C160.462 59.35 159.972 59.45 159.452 59.45C158.932 59.45 158.442 59.35 157.982 59.15C157.522 58.97 157.122 58.71 156.782 58.37C156.462 58.03 156.202 57.64 156.002 57.2C155.822 56.74 155.732 56.24 155.732 55.7ZM176.452 28.61V61.25C176.452 62.47 176.292 63.6 175.972 64.64C175.652 65.7 175.142 66.62 174.442 67.4C173.742 68.18 172.842 68.79 171.742 69.23C170.662 69.69 169.362 69.92 167.842 69.92C167.202 69.92 166.612 69.87 166.072 69.77C165.532 69.67 164.992 69.52 164.452 69.32L164.662 66.44C164.702 66.26 164.772 66.12 164.872 66.02C164.952 65.94 165.072 65.89 165.232 65.87C165.392 65.85 165.602 65.84 165.862 65.84C166.102 65.86 166.412 65.87 166.792 65.87C168.352 65.87 169.462 65.5 170.122 64.76C170.782 64.04 171.112 62.87 171.112 61.25V28.61H176.452ZM177.562 19.07C177.562 19.59 177.452 20.08 177.232 20.54C177.032 20.98 176.752 21.38 176.392 21.74C176.052 22.08 175.652 22.35 175.192 22.55C174.732 22.75 174.242 22.85 173.722 22.85C173.202 22.85 172.712 22.75 172.252 22.55C171.812 22.35 171.422 22.08 171.082 21.74C170.742 21.38 170.472 20.98 170.272 20.54C170.072 20.08 169.972 19.59 169.972 19.07C169.972 18.55 170.072 18.06 170.272 17.6C170.472 17.12 170.742 16.71 171.082 16.37C171.422 16.01 171.812 15.73 172.252 15.53C172.712 15.33 173.202 15.23 173.722 15.23C174.242 15.23 174.732 15.33 175.192 15.53C175.652 15.73 176.052 16.01 176.392 16.37C176.752 16.71 177.032 17.12 177.232 17.6C177.452 18.06 177.562 18.55 177.562 19.07ZM202.926 33.62C202.686 34.06 202.316 34.28 201.816 34.28C201.516 34.28 201.176 34.17 200.796 33.95C200.416 33.73 199.946 33.49 199.386 33.23C198.846 32.95 198.196 32.7 197.436 32.48C196.676 32.24 195.776 32.12 194.736 32.12C193.836 32.12 193.026 32.24 192.306 32.48C191.586 32.7 190.966 33.01 190.446 33.41C189.946 33.81 189.556 34.28 189.276 34.82C189.016 35.34 188.886 35.91 188.886 36.53C188.886 37.31 189.106 37.96 189.546 38.48C190.006 39 190.606 39.45 191.346 39.83C192.086 40.21 192.926 40.55 193.866 40.85C194.806 41.13 195.766 41.44 196.746 41.78C197.746 42.1 198.716 42.46 199.656 42.86C200.596 43.26 201.436 43.76 202.176 44.36C202.916 44.96 203.506 45.7 203.946 46.58C204.406 47.44 204.636 48.48 204.636 49.7C204.636 51.1 204.386 52.4 203.886 53.6C203.386 54.78 202.646 55.81 201.666 56.69C200.686 57.55 199.486 58.23 198.066 58.73C196.646 59.23 195.006 59.48 193.146 59.48C191.026 59.48 189.106 59.14 187.386 58.46C185.666 57.76 184.206 56.87 183.006 55.79L184.266 53.75C184.426 53.49 184.616 53.29 184.836 53.15C185.056 53.01 185.336 52.94 185.676 52.94C186.036 52.94 186.416 53.08 186.816 53.36C187.216 53.64 187.696 53.95 188.256 54.29C188.836 54.63 189.536 54.94 190.356 55.22C191.176 55.5 192.196 55.64 193.416 55.64C194.456 55.64 195.366 55.51 196.146 55.25C196.926 54.97 197.576 54.6 198.096 54.14C198.616 53.68 198.996 53.15 199.236 52.55C199.496 51.95 199.626 51.31 199.626 50.63C199.626 49.79 199.396 49.1 198.936 48.56C198.496 48 197.906 47.53 197.166 47.15C196.426 46.75 195.576 46.41 194.616 46.13C193.676 45.83 192.706 45.52 191.706 45.2C190.726 44.88 189.756 44.52 188.796 44.12C187.856 43.7 187.016 43.18 186.276 42.56C185.536 41.94 184.936 41.18 184.476 40.28C184.036 39.36 183.816 38.25 183.816 36.95C183.816 35.79 184.056 34.68 184.536 33.62C185.016 32.54 185.716 31.6 186.636 30.8C187.556 29.98 188.686 29.33 190.026 28.85C191.366 28.37 192.896 28.13 194.616 28.13C196.616 28.13 198.406 28.45 199.986 29.09C201.586 29.71 202.966 30.57 204.126 31.67L202.926 33.62Z" fill="white"/>
<g clip-path="url(#clip0_2_13)">
<path d="M248 35V10H298V60H248" fill="#007ACC"/>
<path d="M258.962 35.0875V37.125H265.462V55.625H270.075V37.125H276.575V35.125C276.575 34 276.575 33.0875 276.525 33.0625C276.525 33.025 272.562 33.0125 267.75 33.0125L259 33.05V35.1L258.962 35.0875ZM288.175 33C289.45 33.3 290.425 33.875 291.3 34.7875C291.762 35.2875 292.45 36.1625 292.5 36.3875C292.5 36.4625 290.337 37.925 289.025 38.7375C288.975 38.775 288.775 38.5625 288.575 38.2375C287.925 37.3125 287.262 36.9125 286.225 36.8375C284.725 36.7375 283.725 37.525 283.725 38.8375C283.725 39.2375 283.8 39.4625 283.95 39.7875C284.287 40.475 284.912 40.8875 286.85 41.7375C290.425 43.275 291.975 44.2875 292.912 45.7375C293.975 47.3625 294.212 49.9125 293.5 51.825C292.7 53.9125 290.75 55.325 287.962 55.7875C287.087 55.9375 285.087 55.9125 284.15 55.75C282.15 55.375 280.237 54.375 279.062 53.0875C278.6 52.5875 277.712 51.25 277.762 51.1625L278.237 50.8625L280.112 49.775L281.525 48.95L281.85 49.3875C282.262 50.0375 283.187 50.9125 283.725 51.2125C285.35 52.05 287.525 51.9375 288.6 50.9625C289.062 50.5375 289.262 50.0875 289.262 49.4625C289.262 48.8875 289.175 48.625 288.887 48.1875C288.487 47.6375 287.687 47.1875 285.437 46.1875C282.85 45.0875 281.75 44.3875 280.725 43.3125C280.137 42.6625 279.6 41.65 279.35 40.8125C279.162 40.0875 279.1 38.3125 279.275 37.6C279.812 35.1 281.7 33.35 284.4 32.85C285.275 32.675 287.337 32.75 288.2 32.975L288.175 33Z" fill="white"/>
</g>
<g clip-path="url(#clip1_2_13)">
<path d="M214 20H264V70H214V20Z" fill="#F0DB4F"/>
<path d="M259.908 58.0751C259.542 55.7937 258.054 53.8783 253.648 52.0913C252.118 51.3878 250.412 50.8841 249.903 49.7243C249.722 49.0494 249.699 48.6692 249.813 48.2605C250.141 46.9344 251.723 46.5209 252.978 46.9011C253.786 47.1721 254.551 47.7947 255.012 48.788C257.17 47.3907 257.165 47.4002 258.672 46.4402C258.121 45.5847 257.826 45.1901 257.465 44.8242C256.167 43.3746 254.399 42.6284 251.571 42.6854C251.082 42.7472 250.587 42.8137 250.098 42.8755C248.686 43.232 247.341 43.9734 246.552 44.9668C244.185 47.6521 244.86 52.3527 247.74 54.2871C250.578 56.4164 254.746 56.9012 255.278 58.8926C255.797 61.3309 253.487 62.1198 251.191 61.8394C249.499 61.4877 248.558 60.6274 247.541 59.0637C245.668 60.1474 245.668 60.1474 243.743 61.2548C244.2 62.2529 244.68 62.7044 245.445 63.5694C249.067 67.2434 258.13 67.0628 259.756 61.502C259.822 61.3118 260.26 60.038 259.908 58.0751ZM241.182 42.98H236.505C236.505 47.02 236.486 51.0314 236.486 55.0713C236.486 57.6426 236.619 60 236.201 60.7224C235.516 62.1435 233.743 61.9677 232.935 61.692C232.113 61.288 231.695 60.7129 231.21 59.9002C231.077 59.6673 230.977 59.4867 230.944 59.4724C229.675 60.2472 228.411 61.0266 227.142 61.8013C227.774 63.0989 228.705 64.2253 229.898 64.9572C231.681 66.0266 234.076 66.3545 236.581 65.7794C238.211 65.3041 239.618 64.3203 240.355 62.8232C241.419 60.8603 241.191 58.4838 241.182 55.8555C241.205 51.5684 241.182 47.2814 241.182 42.98Z" fill="#323330"/>
</g>
<defs>
<clipPath id="clip0_2_13">
<rect x="248" y="10" width="50" height="50" rx="5" fill="white"/>
</clipPath>
<clipPath id="clip1_2_13">
<rect x="214" y="20" width="50" height="50" rx="5" fill="white"/>
</clipPath>
</defs>
</svg>
